<svg width="368" height="160" viewBox="0 0 368 160" fill="none" xmlns="http://www.w3.org/2000/svg">
<g clip-path="url(#clip0_248_3982)">
<path d="M149.874 46.341C149.123 49.0964 148.371 52.1023 147.37 55.6091C146.618 58.8655 145.366 62.6229 144.365 67.1317H168.656L169.908 62.6229H157.637L160.142 53.6052H175.919C179.425 53.6052 181.678 56.3606 180.677 60.118L178.924 67.1317L177.922 70.6386C176.92 74.1455 173.414 77.1514 169.658 77.1514H135.6C132.094 77.1514 129.84 74.396 130.841 70.6386L138.354 42.3331C139.356 38.8262 143.112 35.8203 146.618 35.8203H185.685L182.931 46.0905C171.411 46.3409 161.143 46.341 149.874 46.341ZM293.37 57.3626L277.843 77.1514H264.32L259.562 57.3626L253.301 77.1514H241.03L254.052 36.0708H267.325L274.587 64.8773L297.376 36.0708H310.649L301.634 77.1514H289.363L293.37 57.3626ZM327.428 52.1022C327.929 49.8478 328.179 48.5954 328.93 46.341H365.243L367.997 36.0708H326.176C322.419 36.0708 318.663 39.0767 317.661 42.8341C316.409 47.3429 315.157 52.1023 313.905 56.6111C312.653 61.1199 311.4 65.8793 310.148 70.3881C309.147 74.1455 311.4 77.1514 315.157 77.1514H356.978L359.733 66.8812H323.421C323.827 64.8519 324.518 62.8979 324.924 60.8694H352.22L354.474 52.1022H327.428ZM215.987 48.3449L219.493 61.6209H205.469L215.987 48.3449ZM223.25 77.1514H236.522L226.004 35.8203H212.982L179.925 77.1514H193.198L198.457 70.6386H221.497L223.25 77.1514Z" fill="black"/>
<path d="M207.473 111.719C210.478 111.719 213.733 108.964 214.735 105.206C214.985 104.204 215.236 103.202 215.486 101.95C216.238 98.6935 217.239 94.9362 217.991 91.9303C218.992 88.1729 217.239 85.4175 214.234 85.4175H177.421L174.917 95.6876H206.22L204.718 101.449H178.924C175.919 101.449 172.663 104.204 171.661 107.962C170.91 111.218 170.159 114.224 169.157 117.48C168.406 120.737 167.404 123.743 166.653 126.999H177.421C178.806 121.919 180.043 116.799 181.428 111.719H207.473ZM260.814 85.9185H229.51C226.505 85.9185 223.25 88.9244 222.248 92.6817C220.996 97.1906 219.994 101.95 218.742 106.459C217.49 111.218 216.488 115.727 215.236 120.236C214.485 123.993 216.238 126.999 219.243 126.999H250.546C253.551 126.999 256.807 123.993 257.809 120.236C259.061 115.727 260.063 110.968 261.315 106.459C262.567 101.699 263.569 97.1906 264.821 92.6817C265.822 88.9244 264.069 85.9185 260.814 85.9185ZM251.798 104.455C251.047 107.21 250.797 108.463 248.543 116.729H226.505C227.757 112.22 228.258 109.715 228.759 108.212C229.761 104.956 229.761 104.204 232.015 95.9381H254.052C252.8 100.697 252.049 102.952 251.798 104.455ZM304.388 126.999H293.62L290.364 110.717H277.342C275.84 116.228 274.337 121.739 273.085 127.25H262.316C264.069 120.987 265.572 114.725 267.325 108.463C268.327 104.705 271.332 101.95 274.587 101.95C278.845 101.95 283.102 101.95 287.61 101.95C291.867 101.95 296.124 101.95 300.632 101.95L302.135 96.1886H270.831L273.335 85.9185H310.148C312.903 85.9185 314.906 88.6739 313.905 92.4312L310.9 103.954C309.898 107.711 306.893 110.467 303.637 110.467H301.634L304.388 126.999ZM162.145 100.697C165.15 100.697 166.903 103.453 165.901 107.21C165.651 108.212 165.401 109.214 165.15 110.467C164.399 113.723 163.397 117.48 162.646 120.486C161.644 124.244 158.639 126.999 155.383 126.999H119.572L122.076 116.729H152.378L153.881 110.968H128.087C125.082 110.968 123.329 108.212 124.33 104.455C124.831 102.451 125.332 100.447 125.833 98.1925C126.334 96.1886 126.835 93.9342 127.335 91.9303C128.337 88.4234 131.342 85.668 134.347 85.668H169.908L167.404 95.9381H137.353L136.1 100.697H162.145ZM354.224 95.9381L356.978 85.668H318.162L315.407 95.9381H329.682L321.668 126.999H331.936L339.949 95.9381H354.224Z" fill="#F5333F"/>
<path d="M0.119006 130.757C-0.381851 133.011 0.619863 137.52 4.62672 138.522C4.62672 138.522 4.87715 138.522 5.12758 138.522C10.3866 139.524 14.6439 136.267 16.6473 135.015C26.9149 128.753 31.673 124.995 35.9303 123.492C41.6902 121.488 47.7004 122.24 51.7073 122.991C55.4637 124.244 61.2236 126.498 65.2305 131.257C68.2356 134.764 70.4895 140.526 76.2493 151.046C77.5015 153.05 79.5049 158.06 84.5135 159.814C84.5135 159.814 84.7639 159.814 85.0143 159.814C89.0212 160.815 92.0263 157.559 92.7776 155.305C94.0297 151.547 99.7896 121.739 99.0383 114.475C98.7879 109.715 96.2836 104.204 91.5255 100.447C92.5272 92.4313 91.0246 86.67 89.0212 79.4058C92.7776 75.8989 95.5323 71.39 96.7844 66.1297C98.7879 59.3665 97.7862 52.3527 95.0315 46.3409C96.0332 21.5423 85.0143 0 85.0143 0C85.0143 0 64.7296 13.0256 52.709 35.3193C47.1996 39.0767 43.1927 44.838 41.1893 51.6012C39.6867 56.8615 39.9372 62.3724 41.1893 67.1317C35.6799 72.392 31.673 76.6504 28.4174 83.9146C22.6576 84.4156 17.8994 88.173 15.1447 91.9303C10.8874 98.1926 1.12072 126.999 0.119006 130.757ZM71.992 96.9402C67.7347 96.6897 63.4775 96.1887 59.4706 94.9362C55.4637 93.9343 51.4569 92.1808 47.7004 90.1769C47.45 86.4195 47.45 82.4117 47.7004 77.9028C51.4569 81.9107 56.215 85.1671 61.7245 86.67C67.4843 88.173 73.2442 87.9225 78.5032 86.169C76.2493 90.1769 74.2459 93.9343 71.992 96.9402ZM61.474 31.3114C63.9783 27.5541 66.733 24.0472 69.4877 21.0413L88.0194 26.0511C88.7707 30.059 89.522 34.3173 89.7725 39.0767C86.2664 35.5698 82.0092 32.8144 76.7502 31.3114C71.4912 29.8085 66.2322 30.059 61.474 31.3114ZM75.2476 36.3213C87.769 39.8281 95.2819 52.6032 91.7759 65.1278C88.2699 77.6523 75.498 85.1671 62.9766 81.6602C50.4552 78.1533 42.9423 65.3783 46.4483 52.8537C49.7039 40.3291 62.7262 33.0649 75.2476 36.3213ZM85.7656 115.727C87.769 116.228 88.7707 118.232 88.2699 119.985C87.769 121.989 85.7656 122.991 84.0126 122.49C82.0092 121.989 81.0075 119.985 81.5083 118.232C82.0092 116.479 83.7622 115.226 85.7656 115.727ZM80.0057 105.707C82.0092 106.208 83.0109 108.212 82.51 109.966C82.0092 111.97 80.0057 112.972 78.2527 112.471C76.2493 111.97 75.2476 109.966 75.7485 108.212C75.9989 106.459 78.0023 105.206 80.0057 105.707ZM75.498 121.488C77.5015 121.989 78.5032 123.993 78.0023 125.747C77.5015 127.751 75.498 128.753 73.745 128.252C71.7416 127.751 70.7399 125.747 71.2407 123.993C71.7416 122.24 73.745 120.987 75.498 121.488ZM69.7382 111.469C71.7416 111.97 72.7433 113.974 72.2425 115.727C71.7416 117.48 69.7382 118.733 67.9852 118.232C65.9817 117.731 64.98 115.727 65.4809 113.974C65.9817 112.22 67.9852 110.968 69.7382 111.469ZM22.4072 100.698C22.6576 99.9461 23.6593 99.1946 24.4106 99.4451L29.92 100.948L31.4226 95.4372C31.673 94.6857 32.6747 93.9343 33.426 94.1848L36.6816 94.9362C37.4329 95.1867 38.1842 96.1887 37.9337 96.9402L36.1807 102.701L41.6902 104.204C42.4414 104.455 43.1927 105.457 42.9423 106.208L41.9406 109.465C41.6902 110.216 40.6884 110.968 39.9372 110.717L34.4277 109.214L32.9252 114.725C32.6747 115.477 31.673 116.228 30.9217 115.978L27.6662 115.226C26.9149 114.976 26.1636 113.974 26.414 113.222L27.9166 107.711L22.6576 105.958C21.9063 105.707 21.155 104.705 21.4054 103.954L22.4072 100.698Z" fill="#F5333F"/>
<path d="M56.2138 132.761C54.9617 137.269 49.4523 140.776 46.4471 144.033C45.4454 139.524 42.4403 133.763 43.442 129.254C43.442 128.753 43.9428 128.001 44.1933 127.5C41.4385 128.753 39.1847 131.258 38.4334 134.264C36.43 142.029 40.6873 151.547 42.1898 159.062C47.1984 153.301 55.9634 147.54 57.9668 139.774C58.7181 136.518 57.9668 133.512 56.2138 131.007C56.4643 131.508 56.2138 132.26 56.2138 132.761Z" fill="black"/>
<path d="M72.4917 46.5913C79.5037 48.5953 83.5105 55.609 81.7575 62.3723C79.7541 69.3861 72.7421 73.3939 65.9805 71.6405C59.219 69.887 54.9617 62.6228 56.7147 55.8595C58.4677 48.8458 65.4797 44.5874 72.4917 46.5913Z" fill="black"/>
</g>
<defs>
<clipPath id="clip0_248_3982">
<rect width="368" height="160" fill="white"/>
</clipPath>
</defs>
</svg>
